<svg xmlns="http://www.w3.org/2000/svg" width="75" height="81" viewBox="0 0 75 81"><defs><mask id="t3nob" width="2" height="2" x="-1" y="-1"><path fill="#fff" d="M6 2h63v70H6z"/><path d="M6.066 58.267c.054-13.842.029-27.684-.076-41.526C5.885 2.9 11.81-.538 23.769 6.431a3596.699 3596.699 0 0 0 35.993 20.697c12.038 6.83 12.05 13.682.038 20.556a3599.507 3599.507 0 0 0-35.918 20.828C11.95 75.524 6.012 72.11 6.066 58.267z"/></mask><filter id="t3noa" width="97" height="107" x="-11" y="-15" filterUnits="userSpaceOnUse"><feOffset dy="3" in="SourceGraphic" result="FeOffset1023Out"/><feGaussianBlur in="FeOffset1023Out" result="FeGaussianBlur1024Out" stdDeviation="2.8 2.8"/></filter></defs><g><g><g filter="url(#t3noa)"><path fill="none" d="M6.066 58.267c.054-13.842.029-27.684-.076-41.526C5.885 2.9 11.81-.538 23.769 6.431a3596.699 3596.699 0 0 0 35.993 20.697c12.038 6.83 12.05 13.682.038 20.556a3599.507 3599.507 0 0 0-35.918 20.828C11.95 75.524 6.012 72.11 6.066 58.267z" mask="url(&quot;#t3nob&quot;)"/><path fill="#000001" fill-opacity=".3" d="M6.066 58.267c.054-13.842.029-27.684-.076-41.526C5.885 2.9 11.81-.538 23.769 6.431a3596.699 3596.699 0 0 0 35.993 20.697c12.038 6.83 12.05 13.682.038 20.556a3599.507 3599.507 0 0 0-35.918 20.828C11.95 75.524 6.012 72.11 6.066 58.267z"/></g><path fill="#3a30f8" d="M6.066 58.267c.054-13.842.029-27.684-.076-41.526C5.885 2.9 11.81-.538 23.769 6.431a3596.699 3596.699 0 0 0 35.993 20.697c12.038 6.83 12.05 13.682.038 20.556a3599.507 3599.507 0 0 0-35.918 20.828C11.95 75.524 6.012 72.11 6.066 58.267z"/></g></g></svg>